<?xml version="1.0" standalone="no"?>
<!DOCTYPE svg PUBLIC "-//W3C//DTD SVG 20010904//EN"
 "http://www.w3.org/TR/2001/REC-SVG-20010904/DTD/svg10.dtd">
<svg version="1.0" xmlns="http://www.w3.org/2000/svg"
 width="1383.000000pt" height="1378.000000pt" viewBox="0 0 1383.000000 1378.000000"
 preserveAspectRatio="xMidYMid meet">
<metadata>
Created by potrace 1.16, written by Peter Selinger 2001-2019
</metadata>
<g transform="translate(0.000000,1378.000000) scale(0.100000,-0.100000)"
fill="#000000" stroke="none">
<path d="M2547 11903 c-3 -5 1 -41 10 -81 15 -76 14 -90 -9 -76 -7 5 -49 7
-94 5 -77 -3 -82 -2 -101 23 -26 33 -59 37 -43 5 7 -11 10 -23 8 -25 -8 -7
-111 -24 -116 -19 -3 3 5 16 18 30 20 22 21 25 6 31 -11 4 -25 -3 -42 -21 -20
-22 -28 -25 -39 -15 -20 17 -45 6 -39 -18 5 -16 -4 -20 -53 -31 -32 -7 -68
-19 -80 -27 -26 -17 -29 -13 -38 52 l-6 51 61 26 c34 15 58 31 55 37 -9 15
-31 12 -73 -8 -20 -10 -45 -17 -54 -14 -10 2 -18 -2 -18 -10 -1 -25 -236 -168
-277 -168 -11 0 4 26 42 72 44 53 55 78 36 78 -13 0 -78 -77 -104 -123 -12
-20 -31 -40 -42 -44 -11 -4 -94 -6 -185 -4 -301 4 -640 -28 -640 -61 0 -11 33
-8 135 13 59 11 605 25 605 15 0 -4 -35 -23 -77 -43 -107 -49 -207 -119 -274
-190 -56 -60 -58 -61 -192 -104 -80 -26 -137 -49 -137 -57 0 -15 19 -11 154
35 55 18 101 32 102 30 1 -1 -24 -35 -56 -75 -68 -84 -115 -190 -135 -300 -17
-94 -41 -204 -57 -257 -8 -28 -13 -291 -18 -905 -6 -764 -9 -873 -24 -930 -17
-67 -84 -244 -136 -360 -16 -36 -42 -101 -59 -145 -16 -44 -54 -139 -85 -211
-31 -73 -56 -139 -56 -148 0 -9 -12 -45 -27 -79 -24 -57 -26 -73 -27 -207 -1
-181 7 -199 111 -246 152 -70 176 -74 420 -74 177 0 232 3 270 16 51 17 191
82 233 108 14 9 52 25 85 37 48 17 72 34 123 88 35 36 75 91 89 121 15 30 38
73 53 95 14 22 43 83 63 136 21 52 65 140 99 195 34 54 74 124 90 154 93 177
209 317 313 375 36 20 139 63 229 95 89 32 210 78 267 101 240 97 879 220
1013 195 51 -10 158 -116 173 -171 6 -22 25 -80 42 -129 26 -73 33 -115 41
-230 6 -78 14 -177 19 -221 5 -44 10 -147 10 -230 1 -125 5 -164 25 -236 13
-47 27 -114 31 -150 3 -35 25 -136 47 -224 23 -88 46 -191 53 -230 7 -38 18
-91 24 -117 10 -43 15 -745 10 -1378 -5 -590 -7 -550 34 -700 58 -206 86 -295
100 -313 6 -9 50 -26 97 -38 70 -18 103 -21 194 -16 102 4 112 7 132 30 13 16
24 45 28 79 9 81 -2 1043 -13 1128 -6 41 -17 108 -26 148 -8 40 -15 93 -15
117 0 56 -25 232 -50 350 -10 50 -22 146 -25 215 -12 236 -41 450 -97 710 -16
75 -21 146 -25 341 -5 244 -5 246 16 252 12 3 21 13 21 24 1 10 5 49 10 88 8
67 7 73 -26 149 l-35 79 33 54 c18 29 46 67 63 83 70 67 345 176 460 182 l68
3 17 -50 c9 -27 44 -104 77 -170 63 -124 95 -229 168 -540 19 -77 45 -184 59
-239 14 -54 39 -180 56 -280 16 -99 48 -255 70 -346 31 -121 44 -198 50 -290
9 -123 24 -206 56 -305 14 -41 18 -125 24 -490 5 -253 13 -457 19 -480 6 -22
11 -57 11 -77 0 -22 13 -62 34 -100 18 -35 45 -110 60 -168 42 -168 40 -165
126 -182 106 -20 130 -21 176 -3 139 53 180 161 172 449 -4 137 -11 191 -46
361 -22 110 -46 234 -52 275 -6 41 -18 98 -25 125 -66 238 -69 547 -13 1205 7
80 13 213 12 295 -1 135 -4 163 -34 279 -29 117 -32 138 -26 220 7 105 20 125
100 155 28 11 71 29 96 40 54 25 142 28 163 6 9 -8 22 -36 31 -62 30 -91 114
-468 136 -608 12 -77 31 -183 41 -235 49 -236 51 -264 56 -1222 6 -1025 -1
-945 88 -988 37 -18 57 -21 98 -17 69 8 217 69 239 99 28 37 38 144 38 412 0
137 5 348 11 469 13 256 10 281 -58 547 -29 112 -48 213 -54 280 -5 63 -24
169 -49 265 -22 88 -49 225 -61 305 -13 91 -37 199 -65 290 -24 80 -51 186
-60 235 -9 50 -29 146 -45 215 -16 69 -29 134 -29 145 1 52 287 195 391 195
35 0 39 -3 78 -69 22 -38 46 -82 52 -98 20 -52 39 -216 49 -443 6 -124 13
-232 16 -240 4 -8 10 -379 14 -825 9 -861 8 -850 60 -1044 13 -46 43 -117 70
-165 27 -46 54 -102 60 -125 14 -53 50 -94 105 -121 44 -21 46 -21 147 -5 163
25 267 53 358 98 148 72 186 128 236 347 46 207 57 290 56 455 0 239 -37 474
-124 785 -11 41 -27 96 -34 123 -7 26 -18 91 -24 145 -6 53 -24 154 -40 223
l-30 127 0 330 c0 194 4 333 9 337 29 18 130 28 319 34 249 7 233 0 276 129
32 96 32 136 1 235 -29 91 -30 103 -9 124 8 9 12 23 9 32 -24 61 -34 148 -23
198 6 26 4 35 -12 43 -16 9 -22 6 -33 -16 -12 -23 -15 -24 -26 -10 -19 23 -26
139 -11 175 26 63 300 287 491 402 85 51 260 116 375 139 107 22 223 59 319
104 73 34 93 39 455 111 124 25 288 59 365 75 113 24 181 32 350 40 126 5 256
18 325 30 452 81 631 103 970 119 102 5 186 8 187 7 5 -4 -142 -119 -209 -165
-74 -49 -94 -71 -65 -71 15 0 196 127 247 174 72 65 77 68 191 87 l112 19 71
-54 c79 -61 150 -131 221 -220 50 -64 51 -67 29 -173 -4 -22 -3 -33 5 -33 6 0
13 12 17 28 18 83 19 83 62 -8 48 -102 129 -327 167 -467 16 -57 33 -103 38
-103 36 0 -135 515 -212 642 -16 25 -32 60 -36 76 -9 42 -48 101 -150 226 -47
59 -85 109 -83 110 1 1 66 14 143 30 l140 28 32 -39 c18 -21 56 -70 85 -110
47 -64 78 -90 78 -65 0 5 -36 55 -80 112 -44 57 -80 107 -80 111 0 6 159 43
245 56 44 6 65 19 65 38 0 17 -36 30 -175 60 -66 14 -131 28 -144 31 -20 4 -9
14 78 67 56 34 117 75 137 90 31 26 35 33 32 70 -2 29 -8 42 -18 42 -11 0 -14
-10 -12 -37 2 -33 -1 -40 -38 -67 -22 -16 -88 -57 -145 -91 l-106 -62 -119 27
c-66 16 -120 31 -120 35 0 16 49 49 89 60 60 16 173 4 205 -21 30 -23 49 -24
44 -3 -7 39 -49 54 -155 56 -68 1 -100 5 -96 12 4 6 35 47 70 91 63 81 150
158 250 222 30 19 51 38 47 44 -6 10 -51 -14 -111 -59 -45 -33 -41 -21 12 47
42 54 55 81 38 81 -5 0 -46 -50 -93 -111 -61 -80 -106 -127 -160 -167 -41 -31
-117 -89 -168 -130 -51 -41 -95 -72 -96 -70 -6 6 212 615 262 735 47 110 67
183 43 158 -25 -27 -130 -295 -256 -655 -47 -134 -89 -248 -94 -253 -5 -5 -47
-6 -96 -2 l-88 8 6 73 c4 48 14 93 31 130 26 57 33 94 18 94 -21 0 -74 -167
-84 -270 -3 -23 -6 -24 -53 -22 -27 2 -111 13 -185 25 -262 43 -717 23 -1092
-48 -101 -18 -280 -50 -399 -69 -120 -20 -280 -49 -357 -65 -77 -16 -227 -46
-333 -66 -107 -20 -322 -65 -479 -100 -157 -35 -316 -68 -355 -74 -38 -6 -146
-25 -240 -41 -125 -23 -217 -32 -345 -37 -167 -6 -181 -5 -290 21 -67 16 -155
46 -212 72 l-97 45 -548 -4 -548 -3 -185 -32 c-102 -18 -250 -37 -330 -43
-427 -29 -728 -82 -973 -171 -54 -20 -76 -23 -105 -16 -20 4 -68 14 -107 22
-38 7 -128 28 -200 45 -71 17 -152 36 -180 42 -27 6 -104 29 -169 51 -107 35
-127 38 -181 33 -45 -5 -89 -1 -163 14 -55 12 -113 21 -129 21 -15 0 -75 12
-133 26 -58 14 -143 33 -190 44 -110 23 -319 101 -382 141 -77 50 -175 163
-215 249 -41 87 -77 180 -104 266 -10 33 -31 77 -46 97 -109 144 -151 196
-181 221 -47 41 -235 92 -376 101 l-106 7 0 58 c0 60 -4 72 -24 64 -8 -3 -11
-23 -8 -64 4 -55 3 -60 -16 -60 -15 0 -22 9 -27 30 -5 24 -11 30 -28 28 -19
-3 -22 4 -32 56 -9 54 -26 79 -38 59z m-633 -199 c6 -50 5 -52 -20 -58 -15 -4
-32 -2 -37 3 -6 6 -25 11 -43 11 -71 0 -69 11 8 61 40 26 76 44 79 41 4 -4 9
-30 13 -58z m478 -35 c16 -19 49 -76 74 -126 40 -83 64 -114 64 -82 0 17 -65
153 -94 195 l-26 39 22 7 c53 15 90 9 112 -19 33 -41 45 -66 46 -93 0 -22 -7
-18 -56 38 -53 59 -84 77 -84 49 0 -7 13 -23 29 -35 36 -27 161 -268 161 -311
0 -18 -11 -40 -30 -61 -16 -18 -30 -36 -30 -41 0 -19 20 -7 53 31 l34 40 18
-40 c10 -22 22 -40 27 -40 12 0 10 14 -12 70 -25 64 -25 84 1 109 13 12 17 21
10 26 -6 3 -11 18 -10 33 1 26 1 26 15 -7 11 -24 18 -31 26 -23 8 8 5 27 -10
70 -12 32 -22 78 -22 100 l0 41 37 -2 c29 -1 38 2 41 16 2 12 -3 17 -16 17
-27 0 -52 10 -52 21 0 12 133 11 206 -2 32 -5 88 -19 124 -31 93 -29 163 -99
297 -292 11 -17 59 -114 105 -216 83 -183 83 -185 175 -281 61 -63 112 -107
150 -127 82 -43 240 -99 331 -116 42 -8 124 -26 182 -39 58 -14 132 -28 165
-32 33 -4 87 -13 120 -20 33 -7 98 -17 145 -21 57 -4 110 -16 160 -36 41 -17
125 -40 186 -53 61 -13 156 -37 211 -54 55 -16 122 -32 149 -36 85 -11 104
-16 101 -27 -1 -8 43 -13 136 -15 118 -4 138 -2 143 11 9 24 -14 46 -50 47
-28 0 -25 3 24 21 75 27 134 41 355 82 230 42 245 44 465 56 103 6 249 22 355
40 247 42 423 51 895 48 l405 -3 91 -42 c50 -24 148 -57 220 -75 113 -28 145
-32 259 -32 72 1 175 8 230 17 218 37 458 81 605 114 508 112 1032 216 1370
273 157 27 348 60 425 75 316 59 743 72 1030 30 94 -14 183 -25 198 -25 l28 0
-3 -82 -3 -81 -155 -93 c-85 -51 -157 -100 -158 -109 -3 -15 0 -15 30 1 18 9
86 50 151 90 66 41 123 74 128 74 5 0 9 -36 9 -81 0 -60 3 -80 13 -77 8 3 13
34 15 96 l3 92 52 38 c29 21 64 47 79 56 l28 18 -35 -97 c-46 -126 -51 -135
-86 -147 -21 -7 -29 -17 -29 -33 0 -40 -22 -46 -182 -56 -451 -27 -595 -43
-926 -104 -189 -36 -373 -55 -517 -55 -95 0 -190 -15 -435 -70 -209 -46 -424
-86 -539 -101 -67 -8 -108 -21 -190 -59 -135 -62 -222 -90 -288 -90 -56 0
-149 -32 -271 -94 -139 -71 -342 -226 -551 -423 l-53 -51 3 -88 c4 -83 7 -93
43 -151 36 -58 39 -68 47 -175 5 -62 13 -131 19 -153 5 -22 10 -61 10 -86 0
-47 -33 -173 -52 -196 -7 -9 -69 -13 -211 -15 -149 -3 -216 -8 -256 -20 -92
-27 -87 -4 -81 -403 l6 -350 32 -125 c17 -69 36 -171 41 -227 6 -58 23 -141
40 -195 16 -51 35 -122 41 -158 7 -36 22 -101 35 -145 43 -151 60 -301 59
-530 -1 -188 -3 -223 -28 -340 -37 -179 -73 -290 -110 -338 -69 -91 -262 -158
-491 -171 -105 -6 -113 -6 -145 16 -19 13 -51 51 -70 85 -19 33 -47 79 -63
102 -49 74 -89 199 -118 376 -8 46 -14 350 -19 880 -8 793 -23 1201 -50 1375
-13 86 -90 253 -126 277 -19 12 -30 12 -85 -1 -132 -31 -280 -98 -354 -160
l-39 -33 18 -79 c9 -44 35 -162 56 -264 21 -102 54 -235 74 -296 20 -61 41
-147 46 -190 17 -138 41 -265 77 -409 19 -77 38 -183 43 -235 5 -54 31 -185
62 -305 51 -204 53 -214 53 -350 0 -259 -24 -940 -35 -986 -15 -62 -41 -84
-130 -108 -92 -26 -133 -26 -188 -1 -76 35 -76 30 -69 540 3 245 1 650 -3 900
-9 465 -14 538 -60 770 -11 58 -27 157 -36 220 -25 186 -110 555 -143 627 -29
61 -31 63 -68 62 -95 -2 -241 -44 -308 -90 -48 -33 -58 -63 -59 -187 -1 -88 4
-124 27 -206 43 -156 48 -254 26 -531 -34 -420 -39 -515 -39 -736 0 -225 14
-365 49 -508 11 -42 24 -110 31 -151 6 -41 27 -158 48 -260 34 -170 37 -199
37 -355 0 -138 -4 -182 -19 -234 -24 -78 -70 -130 -139 -156 -48 -18 -51 -18
-125 1 l-77 20 -17 70 c-46 180 -52 198 -81 231 -17 20 -38 62 -50 101 -18 60
-20 110 -27 492 -8 453 -8 448 -50 615 -18 70 -30 150 -34 220 -4 68 -18 158
-36 235 -59 245 -69 297 -90 435 -12 77 -37 201 -56 275 -19 74 -45 182 -58
240 -58 258 -97 387 -153 505 -31 66 -66 152 -79 190 l-22 70 -72 -3 c-87 -4
-195 -35 -349 -99 -99 -42 -124 -57 -186 -116 -88 -81 -103 -112 -85 -166 7
-22 10 -43 7 -48 -3 -5 0 -27 8 -49 11 -30 14 -110 15 -355 0 -271 3 -332 20
-420 52 -280 62 -335 80 -484 11 -88 20 -200 20 -250 1 -49 5 -110 10 -135 34
-184 59 -349 65 -430 3 -52 11 -112 16 -133 22 -87 29 -224 30 -612 0 -312 -4
-444 -16 -550 -9 -77 -20 -144 -25 -149 -6 -6 -56 -12 -111 -14 -95 -4 -182 9
-239 37 -19 9 -61 134 -94 276 -36 160 -47 391 -35 765 5 168 7 526 4 795 l-6
490 -30 130 c-17 72 -46 197 -65 279 -18 82 -34 159 -34 171 0 12 -16 85 -35
161 -34 135 -35 145 -35 331 0 138 -4 208 -15 250 -9 32 -15 101 -15 159 0 88
-5 117 -36 220 -47 152 -60 178 -127 242 l-56 52 -108 0 c-115 0 -144 -4 -378
-45 -229 -39 -463 -99 -603 -154 -70 -28 -197 -75 -282 -106 -199 -72 -260
-107 -346 -197 -68 -72 -170 -209 -209 -280 -11 -20 -33 -56 -49 -80 -88 -131
-115 -181 -141 -258 -30 -91 -91 -215 -129 -265 -66 -83 -134 -144 -177 -155
-24 -6 -73 -26 -109 -45 -36 -18 -105 -47 -155 -65 l-90 -31 -220 4 -220 4
-99 36 c-137 50 -142 56 -148 173 -5 91 3 160 30 244 6 19 15 58 20 85 11 56
133 390 217 595 128 310 117 201 125 1205 5 755 8 867 23 920 9 33 27 116 40
185 30 154 72 255 140 340 29 36 59 75 67 88 8 12 42 33 74 48 l60 25 -42 -40
c-23 -23 -42 -48 -42 -56 0 -22 5 -19 52 28 62 61 167 126 293 182 61 26 150
66 199 87 48 21 92 38 97 36 5 -2 -55 -37 -133 -78 -263 -138 -450 -270 -385
-270 8 0 24 11 37 25 13 14 60 49 104 77 82 53 379 209 474 249 l53 22 21 -21
c26 -26 24 -29 -92 -126 -119 -99 -250 -226 -250 -242 0 -25 18 -14 72 42 57
60 279 251 303 260 29 12 26 -41 -9 -146 -52 -159 -88 -300 -82 -316 9 -25 23
-7 30 38 8 51 94 329 106 342 5 4 20 -10 35 -33 30 -45 39 -49 53 -25 7 12 24
-9 75 -94 37 -60 67 -117 67 -126 0 -37 63 -206 76 -206 18 0 18 1 -11 81 -13
38 -23 69 -21 69 2 0 27 -31 55 -69 57 -76 77 -96 84 -83 3 4 -10 28 -29 51
l-34 44 0 143 c0 79 3 144 8 144 4 0 20 -16 35 -35 18 -23 36 -35 52 -35 31 0
32 12 3 25 -12 6 -37 32 -56 58 l-35 48 -1 122 c-1 101 -4 122 -16 122 -12 0
-16 -18 -18 -89 l-3 -90 -69 115 c-37 63 -67 116 -65 118 11 10 75 20 114 16
36 -2 50 -9 73 -36z m254 -30 c8 -17 14 -35 12 -41 -5 -13 -48 53 -48 71 0 19
19 3 36 -30z m-601 -15 c-22 -18 -45 -34 -51 -34 -12 0 -28 29 -20 37 9 9 101
41 106 36 3 -3 -13 -20 -35 -39z m185 -46 c33 -51 60 -97 60 -103 0 -10 -121
-55 -147 -55 -6 0 -28 22 -48 50 l-37 50 23 37 c26 44 79 113 85 113 3 0 32
-41 64 -92z m-176 -3 c-9 -14 -19 -23 -22 -20 -5 4 26 45 35 45 2 0 -4 -11
-13 -25z m-374 10 c0 -8 -132 -66 -137 -61 -10 10 82 66 109 66 15 0 28 -2 28
-5z m-145 -14 c-24 -41 -352 -231 -396 -231 -45 0 142 128 278 190 111 51 129
57 118 41z m1138 -24 c4 3 7 -7 7 -24 0 -41 -10 -47 -37 -21 -14 13 -23 33
-23 51 l0 30 23 -21 c13 -12 27 -19 30 -15z m-11 -139 c-4 -15 -7 -18 -10 -8
-3 8 -13 33 -24 55 l-19 40 30 -32 c22 -23 28 -38 23 -55z m-332 2 c17 -34 20
-58 20 -180 0 -77 -4 -140 -8 -140 -4 0 -23 25 -41 55 -31 51 -33 59 -29 127
3 40 8 81 12 91 6 12 4 17 -8 17 -21 0 -36 -39 -36 -93 l0 -42 -45 70 c-24 39
-45 72 -45 75 0 3 35 18 78 32 42 14 78 27 79 27 2 1 12 -17 23 -39z m10864
-327 c-58 -79 -77 -98 -117 -116 -23 -10 -49 -24 -57 -32 -9 -8 -21 -11 -28
-6 -9 5 25 37 104 99 64 51 119 92 122 92 2 0 -8 -17 -24 -37z m-351 -163 c31
0 57 -3 57 -7 0 -8 -143 -113 -154 -113 -3 0 -6 30 -6 66 0 64 1 66 23 60 12
-3 48 -6 80 -6z m181 -31 c8 -7 -87 -124 -129 -159 -19 -16 -19 -16 9 67 37
108 41 113 79 106 17 -3 36 -9 41 -14z m145 -29 c65 -17 90 -31 91 -51 0 -15
-344 -149 -382 -149 -5 0 27 40 72 89 45 49 88 98 96 110 18 26 29 26 123 1z
m336 -71 c80 -18 145 -35 145 -38 0 -4 -59 -21 -132 -38 -148 -36 -143 -36
-185 35 -26 43 -26 45 -8 58 24 18 13 19 180 -17z m-187 -68 l31 -51 -38 -10
c-112 -30 -244 -51 -254 -41 -15 15 -27 14 -27 -4 0 -23 -62 -30 -100 -10 -18
9 -28 20 -24 24 5 5 59 25 119 45 61 21 142 52 180 70 39 18 73 32 76 30 3 -2
19 -26 37 -53z m-429 -125 c27 -15 25 -17 -47 -31 -32 -7 -32 -6 -21 19 13 29
32 32 68 12z m269 -145 c63 -71 57 -82 -8 -15 -25 25 -69 64 -99 87 -51 39
-53 42 -30 48 26 7 31 3 137 -120z m-8509 -2271 c-1 -19 -5 -48 -9 -65 -6 -22
-8 -8 -9 50 0 55 2 75 9 65 5 -8 9 -31 9 -50z"/>
<path d="M1352 11025 c-28 -35 -39 -200 -18 -270 32 -104 108 -190 179 -202
29 -4 40 -1 61 20 37 37 38 104 5 267 -22 108 -36 128 -119 157 -28 10 -51 25
-53 35 -7 25 -32 22 -55 -7z m151 -117 c9 -11 17 -31 17 -44 0 -12 7 -49 15
-81 20 -74 21 -173 3 -184 -44 -28 -113 23 -156 115 -40 84 -42 186 -3 186 10
0 23 11 29 25 10 22 14 23 44 13 18 -5 41 -19 51 -30z"/>
<path d="M1476 10705 c-3 -9 1 -18 10 -22 19 -7 28 2 21 22 -8 19 -23 19 -31
0z"/>
<path d="M1126 7999 c-3 -17 -6 -41 -6 -53 0 -12 -7 -46 -15 -74 -15 -49 -21
-55 -113 -118 -53 -37 -127 -89 -164 -116 -69 -51 -210 -118 -247 -118 -12 0
-44 11 -71 25 -58 29 -83 32 -78 8 4 -21 105 -83 137 -83 37 0 219 97 297 159
40 31 104 79 143 106 97 67 108 81 125 150 26 107 30 145 13 145 -8 0 -17 -13
-21 -31z"/>
</g>
</svg>
